<svg width="25" height="25" viewBox="0 0 25 25" fill="none" xmlns="http://www.w3.org/2000/svg">
<path id="githab" fill-rule="evenodd" clip-rule="evenodd" d="M0 12.5C0 5.59644 5.59644 0 12.5 0C19.4036 0 25 5.59644 25 12.5C25 19.4036 19.4036 25 12.5 25C5.59644 25 0 19.4036 0 12.5ZM6.25 12.6309C6.25 9.19052 9.0405 6.4 12.4809 6.4C15.9213 6.4 18.7118 9.19052 18.75 12.6309C18.75 15.3832 16.9916 17.715 14.5069 18.556C14.2011 18.5942 14.0864 18.4031 14.0864 18.2502V16.53C14.0864 15.9566 13.8953 15.5743 13.6659 15.3832C15.0421 15.2303 16.4947 14.7333 16.4947 12.3251C16.4947 11.637 16.2271 11.0636 15.8448 10.6431C15.8478 10.6311 15.852 10.616 15.857 10.598C15.9155 10.3869 16.0853 9.77431 15.7683 8.99939C15.7683 8.99939 15.2332 8.84649 14.0481 9.64924C13.5512 9.53456 13.016 9.4581 12.4809 9.4581C11.9457 9.4581 11.4106 9.49633 10.9136 9.64924C9.72857 8.84649 9.19342 8.99939 9.19342 8.99939C8.85558 9.82524 9.07068 10.4668 9.11474 10.5982L9.11698 10.6049C8.69646 11.0636 8.4671 11.5988 8.4671 12.2869C8.4671 14.6951 9.91974 15.2303 11.2959 15.3832C11.143 15.5361 10.9519 15.8037 10.9136 16.2242C10.5696 16.3771 9.69038 16.6447 9.11698 15.689C9.11698 15.689 8.77295 15.0774 8.16131 15.0391C8.16131 15.0391 7.54972 15.0391 8.12311 15.4214C8.12311 15.4214 8.54359 15.6125 8.81114 16.3388C8.81114 16.3388 9.19342 17.5621 10.9136 17.1798V18.2502C10.9136 18.4031 10.7989 18.5942 10.4931 18.556C8.04663 17.715 6.25 15.3832 6.25 12.6309Z" fill="#2666F2"/>
</svg>
