<svg width="25" height="25" viewBox="0 0 25 25" fill="none" xmlns="http://www.w3.org/2000/svg">
<g id="linkedin">
<path id="linkedin_2" fill-rule="evenodd" clip-rule="evenodd" d="M0 12.5C0 5.59644 5.59644 0 12.5 0C19.4036 0 25 5.59644 25 12.5C25 19.4036 19.4036 25 12.5 25C5.59644 25 0 19.4036 0 12.5ZM6.40625 10.3906V18.75H9.0625V10.3906H6.40625ZM6.25 7.73438C6.25 8.59375 6.875 9.21875 7.73438 9.21875C8.59375 9.21875 9.21875 8.59375 9.21875 7.73438C9.21875 6.875 8.59375 6.25 7.73438 6.25C6.95313 6.25 6.25 6.875 6.25 7.73438ZM16.0938 18.75H18.5938V13.5938C18.5938 11.0156 17.0312 10.1562 15.5469 10.1562C14.2187 10.1562 13.2812 11.0156 13.0469 11.5625V10.3906H10.5469V18.75H13.2031V14.2969C13.2031 13.125 13.9844 12.5 14.7656 12.5C15.5469 12.5 16.0938 12.8906 16.0938 14.2187V18.75Z" fill="#2666F2"/>
</g>
</svg>
