<svg width="25" height="25" viewBox="0 0 25 25" fill="none" xmlns="http://www.w3.org/2000/svg">
<g id="medium">
<path id="medium_2" fill-rule="evenodd" clip-rule="evenodd" d="M12.5 25C5.59645 25 0 19.4036 0 12.5C0 5.59644 5.59645 0 12.5 0C19.4036 0 25 5.59644 25 12.5C25 19.4036 19.4036 25 12.5 25ZM7.57813 9.14063C7.65624 9.21875 7.73437 9.375 7.73437 9.53126V15C7.8125 15.2344 7.73437 15.3906 7.57813 15.5469L6.25 17.1094V17.3438H9.92188V17.1094L8.59375 15.5469C8.51562 15.3906 8.43749 15.2344 8.43749 15V10.2344L11.7188 17.3438H12.0312L14.8438 10.2344V15.9375C14.8438 16.0938 14.8438 16.1719 14.7656 16.25L13.75 17.2656V17.5H18.6719V17.2656L17.7344 16.3281C17.6563 16.25 17.6563 16.0938 17.6563 16.0156V8.98438C17.5781 8.82813 17.6563 8.75001 17.7344 8.67188L18.75 7.73438V7.5H15.3125L12.8125 13.6719L9.99999 7.5H6.40626V7.73438L7.57813 9.14063Z" fill="#2666F2"/>
</g>
</svg>
