<svg width="25" height="25" viewBox="0 0 25 25" fill="none" xmlns="http://www.w3.org/2000/svg">
<g id="twitter">
<path id="twitter_2" fill-rule="evenodd" clip-rule="evenodd" d="M0 12.5C0 5.59644 5.59644 0 12.5 0C19.4036 0 25 5.59644 25 12.5C25 19.4036 19.4036 25 12.5 25C5.59644 25 0 19.4036 0 12.5ZM17.2656 8.98438C17.8125 8.90625 18.2812 8.82812 18.75 8.59375C18.4375 9.14062 17.9688 9.60938 17.4219 9.92188C17.5781 13.5938 14.9219 17.5781 10.1562 17.5781C8.75 17.5781 7.42188 17.1094 6.25 16.4062C7.57812 16.5625 8.98438 16.1719 9.92188 15.4687C8.75 15.4687 7.8125 14.6875 7.5 13.6719C7.89063 13.75 8.28125 13.6719 8.67188 13.5938C7.5 13.2812 6.64062 12.1875 6.64062 11.0156C7.03125 11.1719 7.42188 11.3281 7.8125 11.3281C6.71875 10.5469 6.32813 9.0625 7.03125 7.89063C8.35938 9.45312 10.2344 10.4688 12.3438 10.5469C11.9531 8.98438 13.2031 7.42188 14.8438 7.42188C15.5469 7.42188 16.25 7.73437 16.7188 8.20312C17.3438 8.04688 17.8906 7.89062 18.3594 7.57812C18.2031 8.20312 17.8125 8.67188 17.2656 8.98438Z" fill="#2666F2"/>
</g>
</svg>
